<svg width="40" height="40" viewBox="0 0 40 40" fill="none" xmlns="http://www.w3.org/2000/svg">
<path fill-rule="evenodd" clip-rule="evenodd" d="M20 40C31.0457 40 40 31.0457 40 20C40 8.9543 31.0457 0 20 0C8.9543 0 0 8.9543 0 20C0 31.0457 8.9543 40 20 40Z" fill="#9D9D9D"/>
<path fill-rule="evenodd" clip-rule="evenodd" d="M28 12H12C10.895 12 10.01 12.895 10.01 14L10 26C10 27.104 10.895 28 12 28H28C29.105 28 30 27.104 30 26V14C30 12.895 29.105 12 28 12ZM28 26H26V17.25L20 21L14 17.25V26H12V14H13.2L20 18.25L26.8 14H28V26Z" fill="white"/>
</svg>
